<?xml version="1.0" encoding="UTF-8"?>
<svg id="Layer_1" xmlns="http://www.w3.org/2000/svg" xmlns:xlink="http://www.w3.org/1999/xlink" version="1.1" viewBox="0 0 2000 2000">
  <!-- Generator: Adobe Illustrator 29.7.1, SVG Export Plug-In . SVG Version: 2.1.1 Build 8)  -->
  <defs>
    <style>
      .st0 {
        fill: url(#orange_linear);
      }

      .st1 {
        fill: url(#orange_linear1);
      }
    </style>
    <linearGradient id="orange_linear" data-name="orange linear" x1="651.35815" y1="264.84665" x2="1708.29511" y2="1321.7836" gradientUnits="userSpaceOnUse">
      <stop offset=".25934" stop-color="#ffdb6e"/>
      <stop offset="1" stop-color="#ffbc5e"/>
    </linearGradient>
    <linearGradient id="orange_linear1" data-name="orange linear" x1="144.62735" y1="112.121" x2="457.89135" y2="425.385" xlink:href="#orange_linear"/>
  </defs>
  <path class="st0" d="M1875.34025,122.479c-48.82-43.41-122.815-43.804-172.076-.836l-533.25002,464.807c-17.08278,14.906-41.864,15.979-60.177,2.555l-174.743-127.973,493.39001-124.298c49.293-12.429,81.945-59.877,75.935-110.369-3.249-27.226-16.973-51.454-38.662-68.238-21.673-16.767-48.504-23.928-75.73003-20.269l-601.81788,81.819c-52.08789,7.09-100.992,27.143-142.996,57.438-.81189.462-1.463,1.061-2.208,1.607-18.82389,13.826-36.375,29.517-51.922,47.397l-135.86,156.224c-50.93304,58.599-78.664,133.557-78.064,211.069.946,125.15,16.51496,300.192,85.32,423.275,16.421,29.355,46.596,48.189,80.699,50.366,33.299,2.224,65.099-12.32,84.642-38.709,31.122-42.022,51.407-103.808,60.698-184.491,50.808,26.216,101.741,53.773,119.234,65.256l91.93,831.502c7.067,63.994,60.9349,112.246,125.3229,112.246,34.04,0,65.935-13.36,89.81622-37.605,23.89778-24.244,36.76878-56.344,36.26378-90.384l-8.423-559.497c-2.35-156.003,61.045-307.258,173.922-414.978l562.13202-536.373c26.263-25.033,40.949-60.209,40.318-96.504-.647-36.28-16.5628-70.919-43.694-95.037ZM817.24234,958.237c-11.588-6.903-27.373-15.77-48.628-27.171l264.52889-338.173,42.979,31.477-258.87989,333.867ZM794.73934,267.692l601.81891-81.818c14.165-1.956,28.235,1.829,39.545,10.584,11.325,8.77,18.502,21.421,20.206,35.649,3.139,26.358-13.9278,51.154-39.671,57.653l-543.34491,136.885c-9.10189,2.287-16.074,9.638-17.87189,18.85-1.79811,9.212,1.89289,18.645,9.46389,24.181l119.6149,87.596-263.79489,3.612-37.44389-251.472c33.33389-21.86,71.34189-36.26,111.47789-41.72ZM627.64735,357.919c3.815-4.389,7.912-8.471,11.98-12.582l32.19411,216.218-214.3461,2.936c9.514-17.856,20.831-34.837,34.312-50.348l135.85999-156.224ZM694.14935,807.157c24.071-52.937,44.514-144.488-21.294-177.408-38.473-19.276-91.946-6.972-133.1,30.538-40.996,37.321-73.506,106.347-41.8,188.103,4.842,12.493,18.897,18.676,31.342,13.834,12.477-4.843,18.676-18.866,13.8341-31.343-28.7561-74.169,15.1109-121.9,29.2439-134.772,25.633-23.345,58.774-33.014,78.8061-23.014,41.42189,20.711-2.72811,117.421-3.20211,118.383-1.656,3.439-2.476,7.256-2.397,11.073,4.054,176.683-28.598,259.006-56.69089,296.958-9.8751,13.297-25.6491,20.096-42.6051,19.197-17.636-1.136-33.157-10.726-41.501-25.68-63.806-114.108-78.27-280.49-79.169-399.992-.209-27.279,3.947-54.107,11.704-79.8l524.00789-7.179-236.29889,302.088c-9.989-5.172-20.502-10.586-32.173-16.533,1.42-26.468,1.861-54.64,1.293-84.453ZM1845.27625,278.971l-562.13202,536.373c-122.626,116.994-191.494,281.294-188.939,450.752l8.423,559.498c.316,20.963-7.619,40.728-22.32,55.65-14.701,14.938-34.339,23.156-55.303,23.156-39.639,0-72.812-29.702-77.15-69.105l-93.0179-841.281c-.144-1.303-.755-2.49-1.108-3.752l267.64211-345.169c28.07378,5.071,57.64578-2.22,80.47478-22.111l533.24902-464.807c30.964-26.958,77.434-26.721,108.051.52,17.288,15.364,27.036,36.564,27.431,59.673.41,23.124-8.581,44.64-25.301,60.603Z"/>
  <path class="st1" d="M522.87735,268.749c0-122.2-99.422-221.606-221.622-221.606s-221.606,99.406-221.606,221.606,99.406,221.622,221.606,221.622,221.622-99.422,221.622-221.622ZM301.25535,441.914c-95.479,0-173.149-77.686-173.149-173.165s77.67-173.149,173.149-173.149,173.165,77.67,173.165,173.149-77.68604,173.165-173.165,173.165Z"/>
</svg>