<?xml version="1.0" encoding="UTF-8"?>
<svg id="Layer_1" xmlns="http://www.w3.org/2000/svg" xmlns:xlink="http://www.w3.org/1999/xlink" version="1.1" viewBox="0 0 64 64">
  <!-- Generator: Adobe Illustrator 29.7.1, SVG Export Plug-In . SVG Version: 2.1.1 Build 8)  -->
  <defs>
    <style>
      .st0 {
        fill: url(#orange_linear);
      }

      .st1 {
        fill: url(#orange_linear4);
      }

      .st2 {
        fill: url(#orange_linear5);
      }

      .st3 {
        fill: url(#orange_linear8);
      }

      .st4 {
        fill: url(#orange_linear7);
      }

      .st5 {
        fill: url(#orange_linear9);
      }

      .st6 {
        fill: url(#orange_linear6);
      }

      .st7 {
        fill: url(#orange_linear3);
      }

      .st8 {
        fill: url(#orange_linear2);
      }

      .st9 {
        fill: url(#orange_linear1);
      }
    </style>
    <linearGradient id="orange_linear" data-name="orange linear" x1="12.92813" y1="11.34639" x2="62.20451" y2="60.62276" gradientUnits="userSpaceOnUse">
      <stop offset=".25934" stop-color="#ffdb6e"/>
      <stop offset="1" stop-color="#ffbc5e"/>
    </linearGradient>
    <linearGradient id="orange_linear1" data-name="orange linear" x1="37.12964" y1="28.62964" x2="48.37036" y2="39.87036" xlink:href="#orange_linear"/>
    <linearGradient id="orange_linear2" data-name="orange linear" x1="42.54291" y1="15.04291" x2="44.45709" y2="16.95709" xlink:href="#orange_linear"/>
    <linearGradient id="orange_linear3" data-name="orange linear" x1="48.54291" y1="13.04291" x2="54.45709" y2="18.95709" xlink:href="#orange_linear"/>
    <linearGradient id="orange_linear4" data-name="orange linear" x1="42.54291" y1="20.04291" x2="44.45709" y2="21.95709" xlink:href="#orange_linear"/>
    <linearGradient id="orange_linear5" data-name="orange linear" x1="48.54291" y1="18.04291" x2="54.45709" y2="23.95709" xlink:href="#orange_linear"/>
    <linearGradient id="orange_linear6" data-name="orange linear" x1="34.04291" y1="37.54291" x2="54.95709" y2="58.45709" xlink:href="#orange_linear"/>
    <linearGradient id="orange_linear7" data-name="orange linear" x1="15.20258" y1="13.0698" x2="29.44834" y2="27.31555" xlink:href="#orange_linear"/>
    <linearGradient id="orange_linear8" data-name="orange linear" x1="262.5687" y1="-46.43648" x2="262.5687" y2="-46.43648" xlink:href="#orange_linear"/>
    <linearGradient id="orange_linear9" data-name="orange linear" x1="-299.56332" y1="489.93652" x2="-299.56332" y2="489.93652" xlink:href="#orange_linear"/>
  </defs>
  <g id="research">
    <g>
      <path class="st0" d="M61.99791,11.937c-.01585-.23894-.12088-.47403-.29118-.64433-.00006-.00006-8.99626-8.99626-9.00122-9.00079-.18523-.16929-.45126-.29188-.70551-.29188h-28c-1.10303,0-2,.89697-2,2v3.11871c-1.97101.0672-3.91327.58612-5.69238,1.56635-6.24512,3.43945-8.55469,11.41455-5.14941,17.77783.33905.63318.73425,1.22083,1.15955,1.77997l-2.55232,7.05884c-.84137.31427-1.55585.88184-2.02667,1.66217l-5.16406,8.56396c-1.13867,1.88867-.52881,4.35205,1.36035,5.49121,1.86311,1.12392,4.36842.50669,5.49072-1.35987,0-.00001,5.16406-8.56396,5.16406-8.56396.47241-.78345.64014-1.68341.52289-2.57721l4.94489-5.41589c.64532.13019,1.29388.20814,1.94238.23755v26.66034c0,1.10303.89697,2,2,2h36c1.10303,0,2-.89697,2-2V12c0-.021-.00071-.04202-.00209-.063ZM53,5.41407l5.58594,5.58593h-5.58594v-5.58593ZM12.87695,40.0625s-5.15377,8.5469-5.16405,8.56394c-.55649.92287-1.8263,1.23307-2.74562.67971-.94434-.56982-1.24902-1.80127-.67969-2.74561l5.16406-8.56396c.27588-.45752.71338-.77979,1.23145-.9082.51904-.12842,1.05566-.04785,1.51416.229.45703.27588.77979.71338.9082,1.23193s.04737,1.05616-.22851,1.51319ZM14.24652,36.50086c-.28564-.34766-.62-.6571-1.01654-.89636-.39844-.24023-.83008-.39246-1.27283-.48279l1.88129-5.203c1.18457,1.09601,2.56042,1.96466,4.08459,2.55548l-3.67651,4.02666ZM19.50293,30.91162c-2.83105-.83838-5.16846-2.75391-6.58105-5.39258-2.8916-5.40283-.93994-12.16846,4.35059-15.08203,1.6084-.88574,3.37402-1.33594,5.15918-1.33594,1.02441,0,2.05566.14844,3.06689.44775,2.83105.83887,5.16797,2.75391,6.58057,5.39307,2.89209,5.40283.94043,12.16846-4.3501,15.08154-2.53223,1.39357-5.4546,1.71046-8.22608.88819ZM60,60H24v-26.72985c1.62543-.18604,3.21594-.68115,4.69385-1.49475,6.24512-3.43896,8.55469-11.41357,5.14893-17.77686-1.66699-3.11426-4.42871-5.37549-7.77588-6.36719-.68311-.20245-1.37433-.33276-2.0669-.41949v-3.21186h27v8c0,.55225.44775,1,1,1h8v47Z"/>
      <path class="st9" d="M54,24c-1.6543,0-3,1.3457-3,3,0,.62927.19647,1.21246.52881,1.69537l-4.68152,6.44141c-.27051-.08032-.55109-.13678-.84729-.13678-.70441,0-1.34424.25409-1.85669.66199l-3.21783-2.01471c.04626-.20898.07452-.42456.07452-.64728,0-1.6543-1.3457-3-3-3s-3,1.3457-3,3c0,.39081.08032.76196.21686,1.10461l-3.75684,3.29089c-.43402-.24437-.92737-.3955-1.46002-.3955-1.6543,0-3,1.3457-3,3s1.3457,3,3,3,3-1.3457,3-3c0-.39081-.08026-.76202-.2168-1.10468l3.75677-3.29083c.43403.24439.92738.39551,1.46003.39551.70441,0,1.34424-.25409,1.85669-.66199l3.21783,2.01471c-.04626.20899-.07452.42457-.07452.64728,0,1.6543,1.3457,3,3,3s3-1.3457,3-3c0-.62927-.19647-1.21252-.52881-1.69537l4.68152-6.44141c.27051.08033.55109.13678.84729.13678,1.6543,0,3-1.3457,3-3s-1.3457-3-3-3ZM30,41c-.55127,0-1-.44873-1-1s.44873-1,1-1,1,.44873,1,1-.44873,1-1,1ZM38,34c-.55127,0-1-.44873-1-1s.44873-1,1-1,1,.44873,1,1-.44873,1-1,1ZM46,39c-.55127,0-1-.44873-1-1s.44873-1,1-1,1,.44873,1,1-.44873,1-1,1ZM54,28c-.55127,0-1-.44873-1-1s.44873-1,1-1,1,.44873,1,1-.44873,1-1,1Z"/>
      <path class="st8" d="M43,17h1c.55225,0,1-.44775,1-1s-.44775-1-1-1h-1c-.55225,0-1,.44775-1,1s.44775,1,1,1Z"/>
      <path class="st7" d="M46,16c0,.55225.44775,1,1,1h9c.55225,0,1-.44775,1-1s-.44775-1-1-1h-9c-.55225,0-1,.44776-1,1Z"/>
      <path class="st1" d="M43,22h1c.55225,0,1-.44775,1-1s-.44775-1-1-1h-1c-.55225,0-1,.44775-1,1s.44775,1,1,1Z"/>
      <path class="st2" d="M56,20h-9c-.55225,0-1,.44775-1,1s.44775,1,1,1h9c.55225,0,1-.44775,1-1s-.44775-1-1-1Z"/>
      <path class="st6" d="M56,34h-4c-.55225,0-1,.44775-1,1v20h-2v-12c0-.55225-.44775-1-1-1h-4c-.55225,0-1,.44775-1,1v12h-2v-15c0-.55225-.44775-1-1-1h-4c-.55225,0-1,.44775-1,1v15h-2v-10c0-.55225-.44775-1-1-1h-4c-.55225,0-1,.44775-1,1v11c0,.55225.44775,1,1,1h28c.55225,0,1-.44775,1-1v-21c0-.55224-.44775-1-1-1ZM31,55h-2v-9h2v9ZM39,55h-2v-14h2v14ZM47,55h-2v-11h2v11ZM55,55h-2v-19h2v19Z"/>
      <path class="st4" d="M29.96191,26.76319c1.75195-2.03467,2.60596-4.63037,2.40332-7.30908-.41748-5.53027-5.25098-9.70117-10.79639-9.29248-2.68311.19678-5.12695,1.42676-6.88086,3.46289-1.75195,2.03418-2.60596,4.62988-2.40332,7.30908.39893,5.28125,4.83203,9.32031,10.05029,9.32031,2.91491,0,5.72442-1.28116,7.62696-3.49072ZM22.93408,28.23194c-4.44336.31689-8.3208-3.01514-8.65527-7.44873-.16211-2.146.52148-4.22461,1.9248-5.85351,1.40479-1.63086,3.36182-2.61572,5.51172-2.77393.20068-.01465.3999-.02197.59814-.02197,4.18311,0,7.73779,3.23779,8.05762,7.4707.16211,2.14551-.52148,4.22461-1.9248,5.85352-1.40479,1.63085-3.36231,2.61571-5.51221,2.77392Z"/>
    </g>
  </g>
  <path class="st3" d="M262.5687-46.43648"/>
  <path class="st5" d="M-299.56332,489.93652"/>
</svg>