<?xml version="1.0" encoding="UTF-8"?>
<svg id="svg17" xmlns="http://www.w3.org/2000/svg" xmlns:xlink="http://www.w3.org/1999/xlink" xmlns:svg="http://www.w3.org/2000/svg" xmlns:sodipodi="http://sodipodi.sourceforge.net/DTD/sodipodi-0.dtd" xmlns:rdf="http://www.w3.org/1999/02/22-rdf-syntax-ns#" xmlns:inkscape="http://www.inkscape.org/namespaces/inkscape" xmlns:dc="http://purl.org/dc/elements/1.1/" xmlns:cc="http://creativecommons.org/ns#" version="1.1" viewBox="0 0 2000 2000">
  <!-- Generator: Adobe Illustrator 29.7.1, SVG Export Plug-In . SVG Version: 2.1.1 Build 8)  -->
  <defs>
    <style>
      .st0 {
        fill: url(#orange-crayola9);
      }

      .st1 {
        fill: url(#orange-crayola6);
      }

      .st2 {
        fill: url(#orange-crayola5);
      }

      .st3 {
        fill: url(#orange-crayola3);
      }

      .st4 {
        fill: url(#orange-crayola4);
      }

      .st5 {
        fill: url(#orange-crayola7);
      }

      .st6 {
        fill: url(#orange-crayola8);
      }

      .st7 {
        fill: url(#orange-crayola1);
      }

      .st8 {
        fill: url(#orange-crayola2);
      }

      .st9 {
        fill: url(#orange-crayola);
      }

      .st10 {
        fill: url(#orange-crayola16);
      }

      .st11 {
        fill: url(#orange-crayola11);
      }

      .st12 {
        fill: url(#orange-crayola10);
      }

      .st13 {
        fill: url(#orange-crayola13);
      }

      .st14 {
        fill: url(#orange-crayola12);
      }

      .st15 {
        fill: url(#orange-crayola15);
      }

      .st16 {
        fill: url(#orange-crayola14);
      }
    </style>
    <linearGradient id="orange-crayola" x1="613.30267" y1="1964.01634" x2="1625.1237" y2="952.19531" gradientTransform="translate(0 2000) scale(1 -1)" gradientUnits="userSpaceOnUse">
      <stop offset=".26" stop-color="#ffdb6e"/>
      <stop offset="1" stop-color="#ffbc5e"/>
    </linearGradient>
    <linearGradient id="orange-crayola1" data-name="orange-crayola" x1="686.79259" y1="1891.4679" x2="1551.38515" y2="1026.87535" xlink:href="#orange-crayola"/>
    <linearGradient id="orange-crayola2" data-name="orange-crayola" x1="188.64925" y1="1718.10774" x2="406.76961" y2="1499.98738" xlink:href="#orange-crayola"/>
    <linearGradient id="orange-crayola3" data-name="orange-crayola" x1="120.84898" y1="1445.37236" x2="735.26805" y2="830.95329" xlink:href="#orange-crayola"/>
    <linearGradient id="orange-crayola4" data-name="orange-crayola" x1="1009.91374" y1="787.79161" x2="1232.58656" y2="565.11879" xlink:href="#orange-crayola"/>
    <linearGradient id="orange-crayola5" data-name="orange-crayola" x1="1592.27277" y1="780.44122" x2="1812.6756" y2="560.03839" xlink:href="#orange-crayola"/>
    <linearGradient id="orange-crayola6" data-name="orange-crayola" x1="456.50232" y1="771.70544" x2="675.3324" y2="552.87537" xlink:href="#orange-crayola"/>
    <linearGradient id="orange-crayola7" data-name="orange-crayola" x1="908.43379" y1="476.89004" x2="1335.11663" y2="50.2072" xlink:href="#orange-crayola"/>
    <linearGradient id="orange-crayola8" data-name="orange-crayola" x1="1493.91492" y1="473.79437" x2="1918.65431" y2="49.05498" xlink:href="#orange-crayola"/>
    <linearGradient id="orange-crayola9" data-name="orange-crayola" x1="358.6719" y1="464.52593" x2="771.81802" y2="51.37981" xlink:href="#orange-crayola"/>
    <linearGradient id="orange-crayola10" data-name="orange-crayola" x1="880.16275" y1="274.33139" x2="1001.32358" y2="153.17056" xlink:href="#orange-crayola"/>
    <linearGradient id="orange-crayola11" data-name="orange-crayola" x1="1242.23083" y1="272.68225" x2="1362.49963" y2="152.41345" xlink:href="#orange-crayola"/>
    <linearGradient id="orange-crayola12" data-name="orange-crayola" x1="1465.01041" y1="273.06082" x2="1585.73557" y2="152.33566" xlink:href="#orange-crayola"/>
    <linearGradient id="orange-crayola13" data-name="orange-crayola" x1="1827.40417" y1="271.48694" x2="1947.48743" y2="151.40369" xlink:href="#orange-crayola"/>
    <linearGradient id="orange-crayola14" data-name="orange-crayola" x1="331.99825" y1="269.5012" x2="452.50046" y2="148.99898" gradientTransform="translate(-.00001 2000.00001) scale(1 -1)" xlink:href="#orange-crayola"/>
    <linearGradient id="orange-crayola15" data-name="orange-crayola" x1="679.31973" y1="268.67862" x2="798.95155" y2="149.0468" gradientTransform="translate(-.00002 2000.00007) scale(1 -1)" xlink:href="#orange-crayola"/>
    <linearGradient id="orange-crayola16" data-name="orange-crayola" x1="2164.45038" y1="828.63711" x2="2213.40038" y2="779.68711" xlink:href="#orange-crayola"/>
  </defs>
  <sodipodi:namedview id="namedview17" bordercolor="#eeeeee" borderopacity="1" inkscape:current-layer="svg17" inkscape:cx="1032" inkscape:cy="963.99997" inkscape:deskcolor="#505050" inkscape:pagecheckerboard="0" inkscape:pageopacity="0" inkscape:showpageshadow="0" inkscape:window-height="1009" inkscape:window-maximized="1" inkscape:window-width="1920" inkscape:window-x="-8" inkscape:window-y="-8" inkscape:zoom="0.125" pagecolor="#505050"/>
  <g id="g17">
    <g>
      <g id="path2">
        <path class="st9" d="M622.82031,1008.45117c-30.51758,0-50.65234-1.98047-72.89209-29.42041-8.77637-10.85156-13.13184-28.29541-13.32373-53.33887-.13428-20.20459-.06592-37.29932.20215-50.82178.29883-14.77197,12.55518-26.78516,27.32129-26.78516.18652,0,.37158.00195.55908.00537l.49951.01514,1.21436.05176c14.53174.51611,26.02637,12.36914,26.0708,26.98096.06738,23.89697-.19043,42.15771-.76611,54.27832-.50098,10.0415,1.57471,18.5127,5.55078,22.69238,1.29932,1.36523,3.58838,3.18066,8.44629,3.18066,59.4043-.07471,122.67969-.11084,193.50537-.11084,77.27832,0,153.54834.04248,228.86914.08447,73.46387.04102,146.02539.08154,217.7373.08154,151.68945,0,267.10352-.18701,374.22266-.60645,31.31738-.12012,33.80664-9.31689,33.80664-21.32812-.16602-444.0376-.14941-699.69678.05078-759.87109.07812-16.78027-.97559-29.05762-6.37305-34.48779-3.57422-3.59521-10.5-5.42529-20.58594-5.43896-213.80273-.23779-449.32715-.35791-700.02686-.35791-100.85303,0-204.66455.01904-311.4502.05713-19.94336,0-26.13135,3.4668-27.55273,4.5293-2.14062,1.60156-8.67041,6.4873-8.56445,22.37451.93164,119.85352,1.13379,242.48438.60205,364.47217-.05225,14.7915-12.1377,26.91992-26.93994,27.0249l-.84473.00049c-14.74268.00098-26.82373-11.99316-26.93018-26.73682l-.00049-.25732c.16602-179.31396.2168-298.37549.1499-353.87695-.03711-23.81787,2.84082-40.52246,8.79883-51.06348,9.16016-16.16797,22.01367-28.13574,38.20996-35.58301,5.60107-2.56494,16.16357-5.49951,48.55713-5.49951l.79297.00049c218.20557.28369,428.86572.42725,626.12646.42725,126.83887,0,251.0752-.05957,369.25488-.17676l.52832-.00049c24.68262,0,40.49023,2.57471,49.74902,8.10303,33.80273,20.0791,40.56543,47.33447,40.5127,84.79785-.33301,161.09668-.31641,411.07764.0498,743.00684.03711,27.18115-2.73535,44.64453-8.72559,54.95459-8.38867,14.40381-20.37305,25.41797-35.62695,32.74902-5.59766,2.66309-15.82812,5.69336-45.92285,5.69336-398.60742,0-733.32568.06738-994.85547.2002h-.00684Z"/>
      </g>
      <g id="path3">
        <path class="st7" d="M1127.6709,920.72949c-164.02588,0-322.74316-.09375-471.7417-.27832-8.58838,0-15.58398-2.11426-20.77686-6.28369-4.10889-3.29932-9.04785-9.47461-9.24365-20.15967-.20166-10.68652-.23584-22.73438-.10156-35.80225.11084-13.96094,11.56201-25.34424,25.52686-25.34424h3.35889c14.021,0,25.42822,11.4292,25.42822,25.47803v8.44873h884.7207V221.56201h-896.89844v293.09619c0,14.24219-11.58691,25.8291-25.8291,25.8291h-1.70361c-14.49072,0-26.28027-11.78906-26.28027-26.28027V190.72168c0-12.72266,10.37305-23.07324,23.12305-23.07324,44.38232.02539,93.4624.0376,147.21436.0376,160.03076,0,365.06055-.11377,609.39355-.33789l8.98926-.00244c59.22559,0,122.42578.32129,187.8457.95508,9.06152.08691,16.21875,2.75586,21.27148,7.93115,3.28906,3.36865,7.17871,9.46631,7.03711,19.38672-.29883,19.50537-.34863,251.71045-.14941,690.17725,0,5.13867-.33008,10.05615-.98145,14.62158-1.42773,10.25098-9.99707,18.19922-20.36914,18.85498-14.42871.81689-34.44727,1.24561-59.58691,1.27881-140.92773.11816-278.95215.17822-410.24707.17822Z"/>
      </g>
      <g id="path4">
        <path class="st8" d="M297.67822,545.19531c-85.06152-.00146-154.26611-69.20605-154.26807-154.26807.00195-85.06299,69.20654-154.26758,154.26807-154.26904,85.07031-.00146,154.27734,69.20312,154.27881,154.26807-.00195,41.21289-16.05078,79.95312-45.19043,109.08936-29.13574,29.1333-67.87891,45.17773-109.08057,45.17969h-.00781ZM297.18018,290.57324c-55.30664.00146-100.30371,44.99854-100.30518,100.30518.00146,55.30615,44.99854,100.30225,100.30518,100.30371,55.30566-.00146,100.30273-44.99756,100.3042-100.30469-.00146-55.30225-45.00244-100.29688-100.30469-100.3042h.00049Z"/>
      </g>
      <g id="path5">
        <path class="st3" d="M230.50391,1639.16992c-32.94531,0-61.31982-18.38574-74.05811-47.9873-3.75195-8.79688-5.76904-22.41504-6.36523-42.89746-3.83154-132.82324-9.45654-286.61035-16.72803-457.35938-7.46094,2.33203-15.28467,3.53516-23.20361,3.53613-35.38867.00293-67.375-22.91895-77.78418-55.74121-1.63623-5.15039-3.32324-16.81055-3.41504-64.19238-.36572-134.70752-.31494-225.24023.15137-269.07422.22217-21.85156,7.99512-46.37988,23.10156-72.89844,22.2168-38.98584,55.74805-66.54346,99.66309-81.9082,18.24268-6.37988,49.29395-9.48047,94.93066-9.48047,2.63135,0,5.30762.01025,8.03662.03125,93.2959.67627,144.02148,1.32275,155.06982,1.97705,29.28809,1.7417,57.08936,14.7583,90.39111,31.59424,45.81055,23.21191,89.63721,43.85693,130.34033,61.39795,49.19385-22.96777,99.15527-47.74756,148.56299-73.68457,13.11572-6.88428,26.25195-10.37451,39.04541-10.37451,15.34033,0,30.22461,4.96924,44.29004,14.78027l148.71631-100.3418c4.46191-2.98828,9.60742-4.5542,14.91797-4.5542,8.89844,0,17.16309,4.39014,22.12598,11.74854l.18262.26318.11523.19141.19629.30469c7.86328,11.24072,5.27637,26.80859-5.87402,34.88623-.26367.19043-.51855.36816-.77637.54102l-149.88672,100.90479c4.53418,18.72461,2.21045,36.58154-6.93555,53.09863-6.20459,11.20117-19.90088,22.79297-41.87305,35.43848-32.58594,18.73975-91.07422,51.90625-173.84424,98.58057-12.92822,7.29053-26.08691,10.98779-39.10986,10.98828-9.64746,0-19.30566-2.03369-28.70605-6.04541-22.50293-9.54492-59.75049-24.8335-110.82764-45.48975-1.72803,119.99854-2.84473,200.00391-3.32129,237.91113-.45801,38.19238.66895,74.71387,1.75879,110.0332.68652,22.24512,1.33496,43.25586,1.54932,63.51074.01465,1.44434.05371,2.8877.0918,4.31836.26904,10.08398.57422,21.51367-7.24609,29.54492-3.07422,3.15723-8.67627,6.92188-17.9043,6.92188-1.9082,0-3.95459-.16016-6.08252-.47559-14.29395-2.09375-23.03809-12.83301-23.37061-28.72363-3.26318-151.78516-2.5542-308.67822,2.10791-466.31592.29199-11.03223,7.96436-20.6665,18.65674-23.38916,1.79053-.44287,3.60986-.65625,5.49512-.65625,4.35645,0,9.27783,1.12842,15.04443,3.44922,49.01025,19.60449,98.38135,40.45898,146.71582,61.97412,1,.44434,2.39795.68066,4.03613.68066,4.18896,0,9.58838-1.55664,14.44287-4.16504,17.79785-9.59424,34.45947-19.65186,50.57275-29.37842,17.77246-10.72803,34.55908-20.86084,52.85156-30.50488,24.12109-12.70459,47.60156-25.81592,69.79297-38.97266,7.9248-4.67822,14.74023-9.64355,20.2876-14.77637,4.40088-16.15771-.75586-22.70312-2.47021-24.87891-6.12451-7.74219-11.17871-8.64014-14.44678-8.64014-3.24854,0-6.99316,1.03613-11.13037,3.07959-53.96143,26.63184-108.89648,54.31836-163.28174,82.2915-5.25244,2.70996-10.55762,4.08838-15.75293,4.08838-4.68311.00049-9.20557-1.10791-13.44287-3.29346-47.95508-24.70654-110.53271-54.60742-185.98877-88.86914-10.49951-4.76221-21.37207-7.22119-32.31201-7.30664-50.9624-.36572-109.8999-.60156-175.16699-.70117h-.10547c-30.21094,0-60.63965,9.05029-85.68066,25.4834-26.40283,17.32715-44.2002,40.97363-51.46875,68.38379-1.53857,5.7832-4.05176,25.61182-3.62549,93.55713.53271,84.48145.44824,156.49023-.25098,214.02588-.29346,23.75049,2.99658,29.52588,3.37256,30.10596,6.58252,10.2002,14.20068,15.14746,23.30469,15.14746,2.08398,0,4.30908-.25,6.61328-.74316,8.71973-1.87891,17.6543-6.78418,17.68555-28.90137.06689-57.78662.26904-142.14941.60156-250.74121.04492-14.25635,11.15674-25.77246,25.34375-26.32617l.82129-.05127.19824-.00635c.2749-.00879.55176-.01367.8252-.01367,13.83203,0,25.01514,10.85449,25.45898,24.71143.01025.34082.01416.64648.01221.95264-1.09521,172-1.08154,274.09961.04102,303.46582,5.61816,148.61914,11.78955,315.56445,18.34277,496.20312.46582,12.87012,9.08496,26.71875,26.90967,26.71875,4.66309,0,20.17139-1.4209,25.03564-19.58301.22998-1.60254.87207-8.11426,2.36719-34.46191,8.28467-146.62891,17.61182-295.42871,27.72266-442.26074.65625-9.16504,6.5708-17.22754,15.0708-20.5752,4.30859-1.68066,8.23633-2.49023,12.04639-2.49023,9.96826,0,22.55322,5.19336,25.89648,29.93359,16.73682,124.27539,32.31055,249.89551,46.29004,373.37695.77686,6.97363-1.20117,13.80859-5.56787,19.27051-4.3667,5.46289-10.59961,8.89746-17.5498,9.6709-.18506.02051-.36572.03906-.54541.05469l-.56445.0498h-.61865c-.59619.03906-1.19531.05957-1.78857.05957-13.78027,0-25.28906-10.3584-26.771-24.09375-2.1958-21.04102-4.28711-38.91992-6.31006-56.20996-1.78125-15.22656-3.50195-29.9375-5.25488-46.33984-.12158,2.4834-.24268,4.96094-.36377,7.43262-2.51611,51.43848-5.11768,104.62793-9.58008,174.68066-1.5625,24.62695-5.49902,40.56543-12.3877,50.15625-15.36914,21.50684-40.5918,34.36328-67.45215,34.36719h-.01025Z"/>
      </g>
      <g id="path6">
        <path class="st4" d="M1121.25,1481.07324c-86.86035-.00098-157.52686-70.66797-157.52734-157.52832.00049-86.86133,70.66699-157.52734,157.52734-157.52734s157.52734,70.66602,157.52832,157.52734c-.00098,86.86035-70.66797,157.52734-157.52832,157.52832h0ZM1120.95703,1219.53125c-57.32617,0-103.96484,46.63867-103.96484,103.96484s46.63867,103.96484,103.96484,103.96484,103.96484-46.63867,103.96484-103.96484-46.63867-103.96484-103.96484-103.96484Z"/>
      </g>
      <g id="path7">
        <path class="st2" d="M1702.47461,1485.68359c-85.97559-.00195-155.92188-69.94922-155.92285-155.92285.00098-85.97559,69.94727-155.92188,155.92285-155.92285,85.97461.00098,155.9209,69.94727,155.92188,155.92285-.00098,85.97363-69.94727,155.9209-155.92188,155.92285h0ZM1702.77832,1227.64551c-56.3877,0-102.2627,45.87402-102.2627,102.26172s45.875,102.2627,102.2627,102.2627,102.26172-45.875,102.26172-102.2627-45.87402-102.26172-102.26172-102.26172Z"/>
      </g>
      <g id="path8">
        <path class="st1" d="M565.88574,1492.45605c-41.34131-.00195-80.20752-16.10254-109.43896-45.33594-29.23193-29.2334-45.32959-68.10059-45.32812-109.44238.00244-85.33496,69.43066-154.76367,154.76709-154.7666,41.34131-.00195,80.20898,16.09668,109.44238,45.32812,29.23389,29.23145,45.33398,68.09766,45.33545,109.43945-.00146,41.35254-16.10156,80.21875-45.33545,109.4502-29.23193,29.22949-68.09814,45.32715-109.43652,45.32715h-.00586ZM565.83643,1236.52246c-55.80225.00293-101.20312,45.40332-101.20508,101.20605-.00146,27.03418,10.52539,52.45117,29.64062,71.56738,19.11475,19.11719,44.53027,29.64551,71.56445,29.64648,55.81641-.00293,101.2168-45.40723,101.21436-101.21387-.00244-55.80762-45.40723-101.20898-101.21436-101.20605l-.00049-13,.00049,13Z"/>
      </g>
      <g id="path10">
        <path class="st5" d="M1374.6377,1898.22363c-14.71094-.16113-26.54883-12.23828-26.38867-26.9209l.00488-.35059c1.19238-81.64941,1.5625-149.59863,1.09766-201.95508-.32715-35.13086-10.94141-64.28516-31.5459-86.64746-19.17871-20.81348-47.0459-36.04102-82.82812-45.25684-19.70215-5.08203-46.27246-5.7334-67.2207-5.7334-7.95605,0-15.82227.10254-23.42969.20312-7.11523.09277-13.83496.18164-20.20117.18164l-1.8584-.00293c-6.97754-.02051-14.43945-.16602-22.33887-.32129-9.29883-.18164-18.91406-.36914-28.62109-.36914-17.45215,0-42.84668.5498-61.7998,5.30957-35.82568,8.99316-63.78027,24.0498-83.0874,44.75-20.74072,22.23828-31.5459,51.33398-32.11426,86.47852-.79639,52.41895-.84668,120.44922-.14893,202.18945.10791,14.69922-11.77344,26.7334-26.48486,26.8418h-.84717c-14.7085,0-26.67725-11.92383-26.73242-26.58105l.00195-.42676c1.12842-88.68262,1.31494-150.72754.55371-184.39941-.67383-30.48828,1.53223-53.12207,6.74365-69.2002,20.61719-63.51172,63.29932-105.77441,126.86182-125.61719,31.62207-9.85254,60.43262-11.20996,86.85645-11.20996,9.53613,0,19.25684.19336,29.54883.39746,10.14551.20215,20.63574.41016,31.79297.44922,1.30957.00488,2.61328.00684,3.90527.00684,9.83691,0,19.17871-.125,28.21289-.24512,8.46387-.11328,16.45801-.21973,24.34668-.21973,32.84473,0,60.99609,2.00684,91.62598,11.7998,63.44238,20.21582,105.85547,62.7334,126.04883,126.36914,5.13574,16.10547,7.2041,38.76562,6.31641,69.25781-.95898,33.66016-1.16016,95.70703-.59473,184.40918.02637,7.16113-2.72363,13.87207-7.74512,18.93066-5.02148,5.05762-11.71191,7.8584-18.83887,7.88379h-.02344l-1.06836-.00098Z"/>
      </g>
      <g id="path11">
        <path class="st6" d="M1959.81055,1898.27539c-14.51855,0-26.33008-11.83398-26.33008-26.38086v-.10645c.29883-68.99414.34961-135.78027.15039-198.50391-.12988-40.57812-15.46289-75.03223-44.34277-99.63867-27.18555-23.16309-65.32617-36.48047-107.39551-37.49805-5.2334-.12988-30.59082-.22949-75.37695-.29688-15.09766-.02246-27.97266-.03418-38.61719-.03418-20.94043,0-33.30859.04395-36.7627.12988-42.11426.90039-80.28906,14.11133-107.53809,37.20117-28.94629,24.52832-44.37207,58.94141-44.61035,99.51953-.36621,62.73242-.5,129.52051-.40039,198.50684,0,14.56348-11.81152,26.39746-26.3291,26.39941l-.60254-.00098c-7.09766-.02539-13.71875-2.78711-18.69141-7.77734-4.98535-5.00195-7.7168-11.64355-7.69043-18.69922l.00391-.36426c1.06055-73.81348,1.07812-132.72461.05078-175.02344-.80957-33.29883,1.50977-58.2627,7.0918-76.31836,14.61914-47.43262,42.87598-83.06543,83.98438-105.89844,34.50781-19.17285,67.41504-29.14746,97.80664-29.64746,11.84961-.18262,33.29395-.27539,63.75-.27539,8.7627,0,18.28906.00781,28.5918.02246,46.09277.06641,77.1709.23535,92.37012.50293,30.41211.57422,63.28809,10.63965,97.72949,29.91895,41.06348,22.9375,69.23145,58.64453,83.71094,106.12598,5.54102,18.08203,7.79199,43.06641,6.875,76.36328-1.15918,42.2959-1.30957,101.20508-.44727,175.09082.0791,7.06055-2.60156,13.72266-7.54883,18.7627-4.93457,5.02734-11.53516,7.83887-18.58594,7.91699l-.29492.00293h-.55078Z"/>
      </g>
      <g id="path12">
        <path class="st0" d="M320.42578,1899.98633c-.28369,0-.56738-.00488-.85107-.01465l-1.43311-.05273c-14.33447-.47754-25.771-12.59961-25.43896-27.02051,1.16113-46.34863,1.48047-116.6416.94873-208.95215-.26221-54.69629,37.6543-115.42383,90.15723-144.4082,33.39404-18.44336,68.19141-27.97461,103.42285-28.3291,53.78125-.54785,96.22021-.82617,126.13672-.82617,13.76221,0,25.17773.05859,33.93018.1748,54.4624.72461,103.70264,21.0752,138.65088,57.30469,33.79297,35.03223,51.75391,82.93848,50.57422,134.89551-.66211,30.1377-.71191,94.12109-.14746,190.16211.08594,13.97656-10.771,25.69531-24.71729,26.6748l-.68408.05371c-.56787.03809-1.13428.05664-1.69531.05664-13.02734.00098-23.92285-10.16406-24.80518-23.14258-.03467-.50781-.05322-1.02051-.05615-1.5332-.19971-17.03711-.08203-72.54688.3501-164.91406.06543-15.4707-.31348-29.84473-1.12646-42.71875-2.35205-37.33008-18.42676-69.08301-46.48682-91.82812-26.57666-21.54199-62.25488-33.40625-100.46289-33.40625l-.78662.00195c-32.32031.14941-58.479.22559-77.74414.22559-19.62207,0-32.26123-.0752-38.63916-.22949-3.51709-.08203-6.98291-.12305-10.29004-.12305-20.8916,0-37.38135,1.63672-49.01123,4.86621-42.90918,11.95898-72.27588,29.69141-89.76514,54.20703-23.29639,32.75488-24.97412,65.64258-24.74512,105.23242.26758,54.23535.53516,110.03027.80225,167.39453.05713,6.91895-2.60156,13.49023-7.48633,18.45703-4.88477,4.96582-11.41162,7.7334-18.37744,7.79102l-.22314.00098Z"/>
      </g>
      <g id="rect12">
        <rect class="st12" x="914.61328" y="1676.62891" width="52.25977" height="219.24023" rx="24.87695" ry="24.87695"/>
      </g>
      <g id="rect13">
        <rect class="st11" x="1276.08496" y="1678.43359" width="52.56055" height="218.03711" rx="25.62891" ry="25.62891"/>
      </g>
      <g id="rect14">
        <path class="st14" d="M1525.02148,1677.98242h.70312c14.75295,0,26.73047,11.97752,26.73047,26.73047v165.17676c0,14.75349-11.97796,26.73145-26.73145,26.73145h-.70117c-14.75349,0-26.73145-11.97796-26.73145-26.73145v-165.17676c0-14.75295,11.97752-26.73047,26.73047-26.73047Z"/>
      </g>
      <g id="rect15">
        <rect class="st13" x="1860.86523" y="1679.78711" width="53.16113" height="217.53516" rx="26.0293" ry="26.0293"/>
      </g>
      <g id="rect16">
        <path class="st16" d="M390.50439,1899.51465c-13.77051-.02441-24.95557-11.24805-24.93213-25.02051l.29248-167.58105c.02441-13.74902,11.22852-24.93359,24.97656-24.93359l3.15332.00586c13.771.02441,24.95605,11.24902,24.93164,25.02148l-.29248,167.58008c-.02441,13.74902-11.22852,24.93359-24.97656,24.93359l-3.15283-.00586Z"/>
      </g>
      <g id="rect17">
        <path class="st15" d="M737.1377,1899.05371c-13.41113-.02344-24.30469-10.9541-24.28174-24.36719l.29199-167.18066c.02295-13.38965,10.93555-24.2832,24.3252-24.2832l3.65283.00684c6.49561.01074,12.59961,2.55176,17.18652,7.1543,4.58643,4.60254,7.10645,10.71582,7.09473,17.21387l-.2915,167.17871c-.02393,13.39062-10.93652,24.28418-24.32568,24.28418l-3.65234-.00684Z"/>
      </g>
    </g>
  </g>
  <path class="st10" d="M2219.42538,1184.83789h-4v-1h2c.6,0,1-.4,1-1v-3c0-.6-.4-1-1-1h-2v-1c0-.6-.4-1-1-1h-6c-.6,0-1,.4-1,1v7h-3.5l1.5-3.6v-.6l-.2-1.1c-.8-4.6-4.1-8.3-8.4-9.9,1-1.3,1.6-3,1.6-4.8,0-4.4-3.6-8-8-8s-8,3.6-8,8c0,1.8.6,3.5,1.6,4.8-4.3,1.6-7.5,5.3-8.4,9.9l-.2,1.1c0,.2,0,.4.1.6l1.5,3.6h-2.6v-6.2c1.2-.4,2-1.5,2-2.8,0-1.7-1.3-3-3-3h-10c-.6,0-1,.4-1,1v3.2c-1.2.4-2,1.5-2,2.8,0,.8.3,1.5.8,2-.5.5-.8,1.2-.8,2,0,.5.1.9.3,1.3-.2.2-.3.4-.3.7v4c0,.6.4,1,1,1h2v25c0,.6.4,1,1,1h4c.6,0,1-.4,1-1v-25h9c-.6.8-1,1.9-1,3v3h-2c-.6,0-1,.4-1,1v19h2v-18h3.3l1.4,13.8c-.4.6-.7,1.4-.7,2.2v1c0,.6.4,1,1,1h6c.6,0,1-.4,1-1v-1c0-.8-.3-1.6-.7-2.2l1.4-13.8h2.6l1.5,13.6c-.5.7-.8,1.5-.8,2.4v1c0,.6.4,1,1,1h6c.6,0,1-.4,1-1v-1c0-.9-.3-1.7-.8-2.4l1.5-13.6h3.3v18h2v-19c0-.6-.4-1-1-1h-2v-3c0-1.1-.4-2.2-1-3h9v25c0,.6.4,1,1,1h4c.6,0,1-.4,1-1v-25h2c.6,0,1-.4,1-1v-4c0-.6-.4-1-1-1ZM2216.42538,1180.83789v1h-1v-1h1ZM2209.42538,1178.83789h4v6h-4v-6ZM2190.42538,1158.83789c3.3,0,6,2.7,6,6s-2.7,6-6,6-6-2.7-6-6,2.7-6,6-6ZM2177.42538,1180.73789l.2-.9c.8-4.2,3.9-7.6,8-8.6,1.3,1,3,1.6,4.8,1.6s3.5-.6,4.8-1.6c4.1,1.1,7.2,4.4,8,8.6l.2.9-1.7,4.1h-2.3v-9c0-.6-.4-1-1-1h-16c-.6,0-1,.4-1,1v9h-2.3l-1.7-4.1ZM2197.42538,1184.83789h-14v-8h14v8ZM2162.42538,1183.83789c0-.6.4-1,1-1h9v2h-9c-.6,0-1-.4-1-1ZM2164.42538,1174.83789h9c.6,0,1,.4,1,1s-.4,1-1,1h-9v-2ZM2163.42538,1178.83789h9v2h-9c-.6,0-1-.4-1-1s.4-1,1-1ZM2167.42538,1214.83789h-2v-24h2v24ZM2181.62538,1197.73789c0-.8.2-1.5.8-2.1,1.1-1.1,3-1.1,4,0,.5.6.8,1.3.8,2l-1.3,13.4c-.5-.1-1-.2-1.5-.2s-1,.1-1.5.3l-1.3-13.4ZM2182.42538,1214.83789c0-1.1.9-2,2-2s2,.9,2,2h-4ZM2193.62538,1197.73789c0-.8.2-1.5.8-2.1,1.1-1.1,3-1.1,4,0,.5.6.8,1.3.8,2l-1.5,13.4c-.4-.1-.8-.2-1.3-.2s-.9.1-1.3.2c0,0-1.5-13.3-1.5-13.3ZM2194.42538,1214.83789c0-1.1.9-2,2-2s2,.9,2,2h-4ZM2201.42538,1193.83789v3h-.3c-.2-.9-.6-1.8-1.2-2.5-.9-1-2.1-1.5-3.5-1.5s-2.6.5-3.5,1.5c-.7.7-1.1,1.6-1.2,2.5h-2.6c-.2-.9-.6-1.8-1.2-2.5-.9-1-2.1-1.5-3.5-1.5s-2.6.5-3.5,1.5c-.7.7-1.1,1.6-1.2,2.5h-.3v-3c0-1.7,1.3-3,3-3h16c1.7,0,3,1.3,3,3ZM2215.42538,1214.83789h-2v-24h2v24ZM2218.42538,1188.83789h-56v-2h56v2Z"/>
</svg>