<?xml version="1.0" encoding="UTF-8"?>
<svg id="Layer_1" xmlns="http://www.w3.org/2000/svg" xmlns:xlink="http://www.w3.org/1999/xlink" version="1.1" viewBox="0 0 512 512">
  <!-- Generator: Adobe Illustrator 29.7.1, SVG Export Plug-In . SVG Version: 2.1.1 Build 8)  -->
  <defs>
    <style>
      .st0 {
        fill: url(#orange_linear);
      }

      .st1 {
        fill: url(#orange_linear1);
      }
    </style>
    <linearGradient id="orange_linear" data-name="orange linear" x1="298.528" y1="154.97599" x2="323.65207" y2="180.10006" gradientUnits="userSpaceOnUse">
      <stop offset=".25934" stop-color="#ffdb6e"/>
      <stop offset="1" stop-color="#ffbc5e"/>
    </linearGradient>
    <linearGradient id="orange_linear1" data-name="orange linear" x1="185.05276" y1="194.76916" x2="360.71829" y2="370.43469" xlink:href="#orange_linear"/>
  </defs>
  <path class="st0" d="M320.99399,139.87c-4.71307-.01337-9.23514,1.86157-12.556,5.20599l-19.81,19.8c-6.93835,6.94087-6.93631,18.19221.00458,25.13057,3.32779,3.32658,7.83908,5.19751,12.54443,5.20242h.01001c4.71588.01131,9.24036-1.86436,12.565-5.20898l19.79999-19.8c6.93835-6.94167,6.93567-18.19363-.00598-25.13199-3.32977-3.32819-7.84415-5.19911-12.55203-5.20201v.004ZM325.06699,161.717l-19.79999,19.8c-1.07944,1.08629-2.54858,1.69556-4.07999,1.692h0c-1.5267.00314-2.99121-.60469-4.06699-1.688l-.01001-.00999c-2.25-2.24727-2.25223-5.89304-.00494-8.14304.00165-.00166.0033-.00331.00494-.00496l19.81601-19.806c2.22574-2.27518,5.87445-2.31528,8.14963-.08954,2.27518,2.22572,2.31528,5.87444.08954,8.14961-.03265.03337-.0657.06636-.09915.09892l.00095.00099Z"/>
  <path class="st1" d="M472.31201,70.6c-19.73895-19.69137-51.56403-20.09827-71.79999-.918-12.05322-7.99693-28.06931-6.40858-38.31702,3.8l-20.02902,20.036c-13.86841-1.17313-27.55048,3.8156-37.409,13.64l-100.15698,100.165c-14.03021-3.46362-28.87274-.15201-40.10001,8.94701l-4.649,3.75c-2.57962,2.07996-2.98468,5.85728-.90472,8.4369.134.1662.27678.32512.42772.47609l26.77101,26.767-80.437,80.437c-2.34335,2.34296-2.34366,6.14194-.00071,8.48529.00024.00021.00047.00046.00071.0007l1.988,1.98599-86.87901,86.86902c-2.34274,2.34354-2.34208,6.14255.00147,8.48529.74699.7467,1.67786,1.28302,2.69853,1.55472l23.77,6.33899c2.06841.55164,4.27403-.04056,5.788-1.55399l78.163-78.16202,1.98599,1.98499c2.34265,2.3403,6.13835,2.3403,8.481,0l80.438-80.42902,27.55699,27.55505c1.12495,1.12531,2.65083,1.75766,4.242,1.758.10699,0,.213,0,.321-.009,1.7-.09094,3.28134-.89978,4.35001-2.22501l3.74701-4.647c9.10284-11.22144,12.41943-26.06091,8.95999-40.09l100.16199-100.166c8.87576-8.8259,13.8515-20.83601,13.81799-33.353,0-1.35899-.065-2.717-.181-4.063l20.03799-20.029c10.20087-10.22437,11.80396-26.21294,3.836-38.259,15.54373-14.50451,39.78021-14.1014,54.83301.912l1.48901,1.49c15.37219,15.4184,15.37219,40.3676,0,55.786l-175.5,175.49998c-17.87967,17.87552-17.88303,46.86084-.00748,64.74048,17.87552,17.87967,46.86081,17.88303,64.74048.00751,2.34445-2.34195,2.34647-6.14105.00452-8.4855-2.34198-2.34442-6.14105-2.34644-8.4855-.00449-13.19186,13.19049-34.57901,13.18939-47.7695-.0025-13.19052-13.19186-13.18939-34.57901.00247-47.7695h0l175.5-175.5c20.04675-20.10816,20.04675-52.64484,0-72.753l-1.48798-1.48999ZM47.033,437.371l-10.372-2.771,79.52-79.51102,6.567,6.564-75.715,75.71802ZM137.457,359.39999l-19.021-19.01999,76.19401-76.19501,19.02499,19.02499-76.198,76.19ZM363,165.38699l-96.53601,96.535c-2.02731-3.5383-4.51166-6.79428-7.38901-9.68401l-20.483-20.49001c-2.32347-2.36266-6.12233-2.39442-8.48499-.07095s-2.39442,6.12233-.07095,8.48499c.02313.02351.04645.04683.06995.06996l20.48399,20.49101c12.23262,12.22787,13.4619,31.64508,2.869,45.31799l-80.868-80.868c13.6824-10.58235,33.09656-9.35155,45.33299,2.87399,2.34721,2.34058,6.14742,2.33521,8.48801-.01199,2.34058-2.34721,2.33521-6.14743-.01201-8.48801-2.89012-2.87082-6.14418-5.35028-9.679-7.375l96.526-96.536c7.94788-7.9211,19.18768-11.59273,30.27899-9.891,19.19919,2.9819,32.34592,20.96323,29.36401,40.16241-1.14594,7.3782-4.60968,14.20045-9.88998,19.4796ZM396.67099,107.94599l-14.82401,14.818c-4.81082-11.80249-14.17569-21.16774-25.978-25.979l14.814-14.82c7.20627-7.14458,18.83994-7.09459,25.98453.11168,7.09982,7.16113,7.10138,18.70628.00348,25.86932Z"/>
</svg>