<?xml version="1.0" encoding="UTF-8"?>
<svg id="Layer_1" xmlns="http://www.w3.org/2000/svg" xmlns:xlink="http://www.w3.org/1999/xlink" version="1.1" viewBox="0 0 512 512">
  <!-- Generator: Adobe Illustrator 29.7.1, SVG Export Plug-In . SVG Version: 2.1.1 Build 8)  -->
  <defs>
    <style>
      .st0 {
        fill: url(#linear-gradient1);
      }

      .st1 {
        fill: url(#linear-gradient);
      }
    </style>
    <linearGradient id="linear-gradient" x1="296.40828" y1="361.14753" x2="325.7752" y2="331.78058" gradientTransform="translate(0 514) scale(1 -1)" gradientUnits="userSpaceOnUse">
      <stop offset=".25934" stop-color="#ffdb6e"/>
      <stop offset="1" stop-color="#ffbc5e"/>
    </linearGradient>
    <linearGradient id="linear-gradient1" x1="184.35389" y1="319.93005" x2="361.42566" y2="142.85828" gradientTransform="translate(0 514) scale(1 -1)" gradientUnits="userSpaceOnUse">
      <stop offset=".25934" stop-color="#ffdb6e"/>
      <stop offset="1" stop-color="#ffbc5e"/>
    </linearGradient>
  </defs>
  <path class="st1" d="M301.18066,198.20898c-3.60156,0-7.02539-.8584-9.90723-2.48193-5.87988-3.31445-9.76367-8.94775-10.65527-15.45605-.88965-6.49805,1.25586-12.88281,5.8877-17.51611l19.81055-19.80078c3.14062-3.1626,7.28516-5.22461,11.67773-5.86816v-.21777l3.00195-.00195c5.54102.00342,10.75098,2.1626,14.6709,6.07959,8.09961,8.09717,8.10352,21.2749.00684,29.375l-19.80078,19.80029c-3.84277,3.8667-9.18262,6.08789-14.64355,6.08789h-.04883ZM299.25,179.40771c.50488.50928,1.20703.80127,1.92676.80127h.01758l-.00684,3,.0127-3c.72266,0,1.42871-.29395,1.9375-.80615l19.80859-19.80762c.90332-.88965,1.14648-2.15918.64258-3.14062-.75391-1.47168-2.0293-1.63037-2.54297-1.63037-.75,0-1.45117.29492-1.97559.83105l-19.83984,19.83105c-1.06641,1.06885-1.07324,2.7998-.02441,3.87793l.04395.04346Z"/>
  <path class="st0" d="M48.83203,451.05957c-.60791,0-1.21436-.0791-1.80225-.23535l-23.77051-6.34082c-1.18896-.31543-2.27783-.94336-3.14795-1.81348-2.72949-2.72852-2.73047-7.16992-.00146-9.89941l86.17139-86.16113-1.28027-1.2793c-1.32227-1.32227-2.05078-3.08008-2.05078-4.9502.00049-1.87012.72852-3.62793,2.05078-4.9502l79.72998-79.72949-26.06396-26.06006c-1.45264-1.45264-2.19385-3.48291-2.03418-5.56982.14209-1.85547,1.12891-3.65039,2.70752-4.92334l4.53174-3.65527c8.36475-6.7793,18.90332-10.51367,29.67334-10.51367,3.6123,0,7.22363.41748,10.74365,1.24219l99.76074-99.76904c9.125-9.09424,21.24316-14.10156,34.12207-14.10156,1.2002,0,2.41309.04541,3.61328.13477l19.70312-19.70947c5.93555-5.91309,13.82031-9.16895,22.20215-9.16895,5.93262,0,11.69238,1.66162,16.70898,4.81299,9.71875-8.94287,22.30664-13.85889,35.53711-13.85889,14.00195,0,27.1709,5.44482,37.08203,15.33203l1.48926,1.49121c20.38477,20.44824,20.38477,53.71826,0,74.16553l-175.50098,175.50098c-12.78027,12.78027-12.78125,33.5752-.00195,46.35547,6.19141,6.19238,14.42285,9.60156,23.17871,9.60156,8.75488,0,16.98535-3.4082,23.17676-9.59863,1.32227-1.32129,3.0791-2.04785,4.94727-2.04785,1.87109,0,3.62988.72852,4.95215,2.05176,2.72754,2.73145,2.72559,7.17285-.00488,9.90039-8.83496,8.83301-20.58105,13.69727-33.07324,13.69727-12.49707,0-24.24609-4.86719-33.08105-13.70508-8.83496-8.83594-13.69922-20.58398-13.69727-33.0791.00098-12.49512,4.86914-24.24121,13.70508-33.0752l175.5-175.50049c14.94434-14.98975,14.94434-39.38232-.00098-54.37305l-1.48828-1.48877c-7.26562-7.24658-16.9209-11.23779-27.18555-11.23779-9.50293,0-18.5752,3.46924-25.64355,9.78809,7.66211,12.30273,5.86035,28.48584-4.4248,38.7959l-19.71191,19.70264c.09766,1.25732.14648,2.49414.14648,3.68311.03418,12.69238-5.10938,25.1084-14.1123,34.06201l-99.76367,99.76855c3.29102,14.0918-.16016,29.15723-9.28711,40.4082l-3.74512,4.64551c-1.24609,1.54395-3.09521,2.48926-5.0752,2.5957-.10791.00879-.24072.00977-.37451.00977-1.86865,0-3.62646-.72852-4.94873-2.05078l-26.8501-26.84766-79.73096,79.72168c-1.32227,1.32031-3.0791,2.04785-4.94775,2.04785s-3.62549-.72754-4.94727-2.04785l-1.2793-1.27832-77.45557,77.45508c-1.32227,1.32227-3.08057,2.0498-4.9502,2.0498ZM46.73389,436.25586l74.59961-74.60254-5.15234-5.15039-77.58691,77.57812,8.13965,2.1748ZM137.45703,357.98633l74.78369-74.77637-17.61084-17.61133-74.77979,74.78125,17.60693,17.60645ZM253.34961,304.51758c9.51758-13.18555,8.11035-31.51367-3.4668-43.08789l-20.48389-20.49072c-.51709-.50928-.9292-1.07568-1.25439-1.72705-1.29834-2.60254-.94141-5.75732.88721-7.85059,1.33496-1.5293,3.26025-2.40625,5.28174-2.40625,1.89209,0,3.66455.74268,4.99121,2.0918l20.47754,20.48389c2.63281,2.64502,4.94531,5.59131,6.88574,8.77295l95.625-95.62354c5.16504-5.16455,8.48828-11.70947,9.6084-18.92627,1.40137-9.02197-.79395-18.04883-6.18262-25.41895-5.3877-7.37012-13.32422-12.20068-22.3457-13.60156-1.71582-.26318-3.46777-.39697-5.20312-.39697-9.14062,0-17.74121,3.5542-24.2168,10.00781l-95.61328,95.62305c3.17822,1.93799,6.12158,4.24512,8.76465,6.87012,2.73535,2.72754,2.7417,7.16992.01562,9.90381-1.32324,1.32715-3.08398,2.05762-4.95801,2.05762-1.8667,0-3.62256-.72559-4.94434-2.04395-6.3042-6.29834-14.68604-9.76709-23.60254-9.76709-7.07275,0-13.79053,2.17285-19.50049,6.29443l79.23486,79.23535ZM357.62207,96.44531c10.88477,4.84326,19.72168,13.68066,24.56445,24.56543l13.77734-13.77197c6.67969-6.7417,6.67871-17.71533-.00586-24.45801-3.28809-3.31543-7.66992-5.1416-12.33887-5.1416-4.6123,0-8.95703,1.78857-12.23242,5.03564l-13.76465,13.77051Z"/>
</svg>