<?xml version="1.0" encoding="UTF-8"?>
<svg id="svg17" xmlns="http://www.w3.org/2000/svg" xmlns:xlink="http://www.w3.org/1999/xlink" xmlns:svg="http://www.w3.org/2000/svg" xmlns:sodipodi="http://sodipodi.sourceforge.net/DTD/sodipodi-0.dtd" xmlns:rdf="http://www.w3.org/1999/02/22-rdf-syntax-ns#" xmlns:inkscape="http://www.inkscape.org/namespaces/inkscape" xmlns:dc="http://purl.org/dc/elements/1.1/" xmlns:cc="http://creativecommons.org/ns#" version="1.1" viewBox="0 0 2000 2000">
  <!-- Generator: Adobe Illustrator 29.7.1, SVG Export Plug-In . SVG Version: 2.1.1 Build 8)  -->
  <defs>
    <style>
      .st0 {
        fill: url(#orange_linear);
      }

      .st1 {
        fill: url(#orange_linear10);
      }

      .st2 {
        fill: url(#orange_linear11);
      }

      .st3 {
        fill: url(#orange_linear12);
      }

      .st4 {
        fill: url(#orange_linear13);
      }

      .st5 {
        fill: url(#orange_linear14);
      }

      .st6 {
        fill: url(#orange_linear15);
      }

      .st7 {
        fill: url(#orange_linear4);
      }

      .st8 {
        fill: url(#orange_linear5);
      }

      .st9 {
        fill: url(#orange_linear8);
      }

      .st10 {
        fill: url(#orange_linear7);
      }

      .st11 {
        fill: url(#orange_linear9);
      }

      .st12 {
        fill: url(#orange_linear6);
      }

      .st13 {
        fill: url(#orange_linear3);
      }

      .st14 {
        fill: url(#orange_linear2);
      }

      .st15 {
        fill: url(#orange_linear1);
      }
    </style>
    <linearGradient id="orange_linear" data-name="orange linear" x1="538.22787" y1="543.57359" x2="1694.95839" y2="543.57359" gradientUnits="userSpaceOnUse">
      <stop offset=".25934" stop-color="#ffdb6e"/>
      <stop offset="1" stop-color="#ffbc5e"/>
    </linearGradient>
    <linearGradient id="orange_linear1" data-name="orange linear" x1="627.13033" y1="544.03751" x2="1606.00832" y2="544.03751" xlink:href="#orange_linear"/>
    <linearGradient id="orange_linear2" data-name="orange linear" x1="156.41036" y1="390.92672" x2="438.95706" y2="390.92672" xlink:href="#orange_linear"/>
    <linearGradient id="orange_linear3" data-name="orange linear" x1="41.70718" y1="1050.58114" x2="1040.34073" y2="1050.58114" xlink:href="#orange_linear"/>
    <linearGradient id="orange_linear4" data-name="orange linear" x1="976.72271" y1="1323.54519" x2="1265.77835" y2="1323.54519" xlink:href="#orange_linear"/>
    <linearGradient id="orange_linear5" data-name="orange linear" x1="1559.55175" y1="1329.76049" x2="1845.39696" y2="1329.76049" xlink:href="#orange_linear"/>
    <linearGradient id="orange_linear6" data-name="orange linear" x1="424.11864" y1="1337.68378" x2="707.6637" y2="1337.68378" xlink:href="#orange_linear"/>
    <linearGradient id="orange_linear7" data-name="orange linear" x1="853.09299" y1="1688.70503" x2="1390.10552" y2="1688.70503" xlink:href="#orange_linear"/>
    <linearGradient id="orange_linear8" data-name="orange linear" x1="1438.17408" y1="1690.92162" x2="1974.43355" y2="1690.92162" xlink:href="#orange_linear"/>
    <linearGradient id="orange_linear9" data-name="orange linear" x1="305.69575" y1="1695.18461" x2="823.5794" y2="1695.18461" xlink:href="#orange_linear"/>
    <linearGradient id="orange_linear10" data-name="orange linear" x1="927.6134" y1="1786.24912" x2="953.87313" y2="1786.24912" xlink:href="#orange_linear"/>
    <linearGradient id="orange_linear11" data-name="orange linear" x1="1289.08528" y1="1787.45196" x2="1315.6456" y2="1787.45196" xlink:href="#orange_linear"/>
    <linearGradient id="orange_linear12" data-name="orange linear" x1="1511.29047" y1="1787.30162" x2="1539.45448" y2="1787.30162" xlink:href="#orange_linear"/>
    <linearGradient id="orange_linear13" data-name="orange linear" x1="1873.86486" y1="1788.55439" x2="1901.02668" y2="1788.55439" xlink:href="#orange_linear"/>
    <linearGradient id="orange_linear14" data-name="orange linear" x1="378.57232" y1="1790.75" x2="405.92633" y2="1790.75" gradientTransform="translate(2182.31199 1395.37583) rotate(89.9)" xlink:href="#orange_linear"/>
    <linearGradient id="orange_linear15" data-name="orange linear" x1="725.85597" y1="1791.14154" x2="752.40745" y2="1791.14154" gradientTransform="translate(2528.9805 1048.88483) rotate(89.9)" xlink:href="#orange_linear"/>
  </defs>
  <sodipodi:namedview id="namedview17" bordercolor="#eeeeee" borderopacity="1" inkscape:current-layer="svg17" inkscape:cx="1032" inkscape:cy="963.99997" inkscape:deskcolor="#505050" inkscape:pagecheckerboard="0" inkscape:pageopacity="0" inkscape:showpageshadow="0" inkscape:window-height="1009" inkscape:window-maximized="1" inkscape:window-width="1920" inkscape:window-x="-8" inkscape:window-y="-8" inkscape:zoom="0.125" pagecolor="#505050"/>
  <g id="g17">
    <path id="path2" class="st0" d="M549.80441,875.12758c.16012-7.91404,6.70554-14.19984,14.61957-14.03972.08817.00184.17618.00436.26427.0078l1.1526.05009c7.58851.26917,13.6079,6.46558,13.631,14.03192.06683,23.78745-.18375,41.66142-.75168,53.6219-1.00226,20.09574,6.41458,39.53997,27.0615,39.48981,358.014-.45101,694.12824.70167,1014.30612-.55118,26.10932-.10017,46.75624-5.91341,46.75624-34.32808-.16701-446.01407-.15034-699.28993.05016-759.82758.15034-32.27339-3.40771-52.92031-39.94082-52.97043-300.88414-.33413-638.05065-.43434-1011.49975-.30067-17.20579,0-28.98252,2.37203-35.33034,7.11617-9.28778,6.94913-13.88158,17.90735-13.78133,32.87473.93543,120.40705,1.13585,241.84985.60134,364.32833-.0273,7.74642-6.28565,14.0271-14.03192,14.082h-.65151c-7.69404.05544-13.97625-6.13692-14.03161-13.83096-.00038-.05024-.00046-.10056-.00031-.15079.16701-180.31001.21717-298.27819.15034-353.90466-.03334-21.31513,2.33869-36.19894,7.11617-44.6515,7.81776-13.79804,18.59231-23.85421,32.32348-30.16858,6.34775-2.90662,20.98101-4.34322,43.89978-4.3098,360.18561.46772,691.99004.55126,995.41322.25058,22.01661-.03342,36.54978,2.05465,43.59919,6.26424,28.26434,16.78816,34.22775,38.53763,34.17774,73.61739-.33416,161.56733-.31749,409.24724.05016,743.03945.03349,24.22164-2.28853,40.35848-6.96591,48.41008-7.08275,12.16098-17.08872,21.34859-30.0182,27.56267-6.18074,2.94003-19.61139,4.41005-40.29165,4.41005-399.97601,0-731.59677.06683-994.86196.2005-30.61962,0-45.0023-2.65603-62.79276-24.60596-6.78208-8.38577-10.25663-23.46996-10.42371-45.25288-.13359-20.17924-.06676-37.00078.20042-50.46477l.00015-.00015Z"/>
    <path id="path3" class="st15" d="M655.84552,208.56209c-.49819.00004-.90201.42631-.90201.95218v305.14378c0,7.08535-5.7438,12.82916-12.82916,12.82916h-1.70386c-7.33441,0-13.28016-5.94575-13.28016-13.28016V190.72154c0-5.56311,4.53225-10.07291,10.12304-10.07291h0c177.33656.10021,429.54336,0,756.62017-.30067,62.14126-.03342,127.70689.284,196.69722.95218,10.42363.10021,15.56869,4.81093,15.43503,14.13213-.30067,19.67803-.35068,249.80128-.15034,690.36961-.00015,4.54364-.284,8.80336-.852,12.77907-.58697,4.22248-4.06442,7.4485-8.31893,7.71751-14.16551.80184-33.76008,1.21951-58.78371,1.25285-318.42402.26718-612.40908.23384-881.95526-.10017-11.19213,0-16.8717-4.56039-17.03871-13.68108-.2005-10.62413-.23384-22.43435-.10025-35.43059.05498-6.90772,5.64814-12.47848,12.52849-12.4784h3.35762c6.8639,0,12.42824,5.58681,12.42824,12.4784h0v19.0934c0,1.30079,1.05449,2.35536,2.35536,2.35536h905.80947c1.4116,0,2.55586-1.14426,2.55586-2.55578h0V209.96528c0-.77492-.60578-1.40315-1.35302-1.40318h-920.64308Z"/>
    <path id="path4" class="st14" d="M297.67882,249.65826c-78.01979.00153-141.26693,63.24866-141.26846,141.26846.00153,78.01979,63.24866,141.26693,141.26846,141.26846,78.02194.0039,141.27434-63.24224,141.27824-141.26417v-.00428c-.00153-78.02194-63.25203-141.26999-141.27396-141.26846h-.00428ZM297.17967,277.57329c62.57563.00168,113.30277,50.72882,113.30452,113.30449-.00176,62.57567-50.72889,113.3028-113.30452,113.30449-62.57563-.00176-113.30277-50.72889-113.30449-113.30449.00172-62.57559,50.72886-113.30273,113.30449-113.30449Z"/>
    <path id="path5" class="st13" d="M315.92266,1232.08924c-.02764-.30449-.29689-.52885-.60134-.50117s-.52881.29685-.50117.60134c-7.41688,121.97731-9.12074,191.03432-17.43967,321.63123-1.36977,21.58243-4.69398,36.04861-9.97266,43.39869-30.36904,42.49668-97.97277,37.73579-119.02061-11.17546-3.00683-7.04926-4.77752-19.76157-5.31207-38.13664-3.97571-137.81334-9.78895-295.82258-17.43967-474.02774-.02321-.94071-.80463-1.68459-1.74538-1.66134-.30476.00749-.60195.09666-.86053.25816-36.93399,21.94993-85.84517,1.50336-98.27344-37.68563-1.8041-5.67957-2.73955-25.77531-2.80639-60.28706-.3675-135.30764-.3174-224.94473.15034-268.91142.20046-19.71141,7.33336-41.91193,21.39865-66.60139,20.71375-36.34928,51.60063-61.70692,92.66066-76.073,17.67351-6.18074,50.53157-9.08736,98.57411-8.71985,92.20966.66818,143.67666,1.31968,154.40104,1.95444,26.96132,1.60368,53.77224,14.2825,85.29395,30.2187,47.40782,24.02129,92.10937,45.03579,134.10488,63.04335,1.46268.63896,3.12394.62069,4.56039-.05009,50.58169-23.55361,101.29698-48.67734,152.14593-75.37133,25.52465-13.39708,49.5961-11.64314,72.21421,5.26198,2.81348,2.12611,6.67679,2.22667,9.62187.25058l151.44433-102.18232c6.30095-4.21995,14.8174-2.5515,19.0219,3.72643.00719.01071.01422.02133.02141.03212l.45101.70159c3.96195,5.4689,2.7403,13.11415-2.72868,17.0761-.12449.09016-.25058.17794-.37836.26336l-153.19835,103.1345c-2.68394,1.79332-3.89986,5.11669-3.00687,8.21868,4.91114,16.83829,3.32428,32.55731-4.76081,47.15724-4.97798,8.98711-17.30604,19.14356-36.98411,30.46928-32.70765,18.8094-90.62261,51.65079-173.74502,98.52402-19.07673,10.7578-37.85271,12.1944-56.3281,4.3098-24.88996-10.5573-66.96897-27.79658-126.23703-51.71762-.92755-.36162-1.97203.07479-2.33296.97458-.08029.20019-.12189.41338-.12265.6291-1.87094,129.69483-3.05695,214.47093-3.55812,254.32825-.75168,62.64243,2.75628,121.67664,3.30754,173.84527.15034,14.78367,2.70612,30.11853-16.23694,27.31216-7.98484-1.16935-12.07748-6.54824-12.2779-16.13669-3.27405-152.27967-2.57253-307.49914,2.10478-465.65872.14085-5.31107,3.76336-9.87505,8.87019-11.17539,2.83978-.70159,6.99925.05009,12.4784,2.25511,49.11168,19.64473,97.87252,40.24156,146.2826,61.7905,8.56952,3.80863,20.49658,1.1526,29.91803-3.90888,37.18453-20.04558,68.35541-41.39409,103.33492-59.83606,24.42213-12.86265,47.8755-25.95906,70.35994-39.28931,9.05394-5.34548,16.77153-11.02505,23.15262-17.03871,1.31035-1.21209,2.26345-2.75429,2.75628-4.46014,4.44347-15.46852,2.94003-27.93017-4.51022-37.38503-11.25889-14.23242-25.10706-17.28929-41.54442-9.17086-54.29008,26.79424-108.78065,54.25666-163.47165,82.38733-6.28091,3.24071-12.04406,3.50796-17.28929.80184-48.37667-24.9233-110.56801-54.64099-186.57418-89.15267-12.22781-5.54598-24.7563-8.36902-37.58546-8.46927-51.21649-.3675-109.63258-.60142-175.24846-.70159-64.99779-.05009-132.75182,39.08889-149.84069,103.53542-3.04025,11.42597-4.39332,43.74952-4.05924,96.9705.53455,84.79278.45105,156.05481-.25057,213.78601-.23386,18.90972,1.58696,31.35471,5.46242,37.33495,10.12302,15.68569,24.35536,24.15496,43.54901,20.04558,18.60898-4.00921,27.93017-17.87404,27.96359-41.59451.06679-57.86487.26725-141.43822.60138-250.72004.02298-7.24418,5.76552-13.16416,12.97949-13.38041l.80184-.05009c6.88807-.2216,12.65148,5.20509,12.87297,12.12076.00486.15263.00696.30518.00631.45781-1.10251,172.99334-1.0858,274.34056.05012,304.04127,5.64619,149.37297,11.7601,314.76565,18.34172,496.17817,1.70386,47.10707,66.30072,53.67199,77.62648,9.52162.50113-2.00453,1.38648-14.199,2.65603-36.58312,8.31889-147.23478,17.55655-294.60307,27.713-442.10519.30059-4.19288,2.97051-7.83734,6.86562-9.37128,14.13213-5.51256,18.54214,4.10938,20.29616,17.08887,16.80487,124.78368,32.22323,249.15,46.25515,373.09835.80631,7.23431-4.40458,13.75243-11.6389,14.55886-.0793.00887-.15867.01698-.23812.02432h-.55126c-7.57765.698-14.31569-4.83537-15.13439-12.42831-5.26198-50.41461-9.82233-81.836-14.93397-136.05932-3.675-38.95515-8.31889-74.13523-13.93167-105.53995l.00004-.00061Z"/>
    <path id="path6" class="st7" d="M1121.25053,1179.01737c-79.82031.00046-144.52736,64.70751-144.52782,144.52782.00046,79.82031,64.70751,144.52736,144.52782,144.52782,79.82031-.00046,144.52736-64.70751,144.52782-144.52782-.00046-79.82031-64.70751-144.52736-144.52782-144.52782ZM1120.95689,1206.5311c64.59786.00046,116.96469,52.36729,116.96515,116.96515-.00046,64.59786-52.36729,116.96469-116.96515,116.96515-64.59786-.00046-116.96469-52.36729-116.96515-116.96515.00046-64.59786,52.36729-116.96469,116.96515-116.96515Z"/>
    <path id="path7" class="st8" d="M1702.47435,1186.83788c-78.93343.00122-142.92123,63.98918-142.92261,142.92261.00122,78.93343,63.98918,142.92123,142.92261,142.92261,78.93343-.00122,142.92123-63.98918,142.92261-142.92261-.00122-78.93343-63.98918-142.92123-142.92261-142.92261ZM1702.77808,1214.64525c63.65746,0,115.26206,51.6046,115.26206,115.26206h0c0,63.65746-51.6046,115.26206-115.26206,115.26206h0c-63.65746,0-115.26206-51.6046-115.26206-115.26206h0c0-63.65746,51.6046-115.26206,115.26206-115.26206h0Z"/>
    <path id="path8" class="st12" d="M565.88627,1195.91125c-78.295.0026-141.76504,63.47256-141.76764,141.76764-.00283,78.29875,63.46858,141.77467,141.76726,141.77743h.00038c78.29867.00275,141.7746-63.46858,141.77743-141.76733v-.01009c-.0026-78.29875-63.47837-141.77024-141.77704-141.76764h-.00038ZM565.83619,1223.52285c63.07623-.00275,114.21193,51.12836,114.21476,114.20467v.00031c.00283,63.0763-51.12836,114.21201-114.20459,114.21476h-.01017c-63.07623-.0026-114.20757-51.138-114.20505-114.2143v-.00046c.0026-63.07263,51.13241-114.20237,114.20497-114.20497h.00008Z"/>
    <path id="path10" class="st10" d="M1122.40626,1493.03256c57.12986.2005,97.47167-4.20955,144.17775,10.72446,59.13439,18.84289,98.72452,58.38271,117.61742,117.9181,4.64404,14.56635,6.5484,36.21561,5.71306,64.94762-.969,33.9774-1.16935,95.60081-.60134,184.87025.02814,7.55578-6.0743,13.7038-13.63008,13.73194-.06714.00015-.13428,0-.20142-.00076h-.70167c-7.55548-.08259-13.61372-6.25185-13.53159-13.77965.00031-.01728.00046-.03456.00076-.05185,1.20269-82.22017,1.57019-149.72365,1.10251-202.51045-.75168-80.53314-51.16629-125.58552-124.13217-144.37825-33.02507-8.51943-81.68566-5.6629-115.91357-5.76307-34.17774-.10017-82.83834-3.30754-115.96365,5.01139-73.06613,18.34172-123.73133,63.09343-125.03427,143.62657-.80176,52.78664-.85193,120.28997-.15034,202.51045.05521,7.5281-6.0252,13.6755-13.58083,13.73086-.01667.00015-.03342.00015-.05016.00031h-.70159c-7.55578.02814-13.7038-6.0743-13.73201-13.63008-.00023-.06714,0-.13428.00076-.20142,1.13593-89.26974,1.3196-150.893.55126-184.8704-.63476-28.73186,1.40318-50.3646,6.11391-64.89761,19.2939-59.43506,59.13446-98.72452,118.3691-117.21658,46.8064-14.58317,87.14814-9.97263,144.278-9.77228l.00015.00046Z"/>
    <path id="path11" class="st9" d="M1706.53434,1522.85026c-45.10255-.06668-70.34334-.03349-75.72209.10017-89.10258,1.90435-164.27349,55.6265-164.82467,149.64031-.3675,63.00993-.50102,129.2104-.40084,198.60157,0,7.38985-5.96816,13.38049-13.33033,13.38064-.01667,0-.03349-.00015-.05016-.00015h-.55118c-7.41738-.02722-13.40878-6.03989-13.38187-13.42958.00015-.05032.00061-.10078.00138-.15125,1.06917-74.40241,1.08584-132.93561.05016-175.59929-.7685-31.57187,1.40318-55.62635,6.51475-72.16404,13.66449-44.33404,39.62332-77.12543,77.87711-98.37369,32.77441-18.20805,63.34394-27.546,91.70845-28.01367,15.20119-.23399,45.90439-.31734,92.10945-.25051,46.23855.06668,76.95827.23369,92.15961.50117,28.36451.53451,58.90055,9.95596,91.60828,28.26434,38.22014,21.34843,64.09562,54.20665,77.62644,98.57419,5.07823,16.57088,7.18308,40.64233,6.31441,72.21421-1.16935,42.66353-1.31953,101.19673-.45101,175.59929.08289,7.38939-5.86248,13.44686-13.2794,13.52991-.05032.00061-.10063.00092-.1511.00092h-.55118c-7.36217.00015-13.33033-5.99033-13.33048-13.38003.00015-.01682.00015-.03365.00015-.05047.30067-69.39101.35083-135.59149.15034-198.60157-.30067-94.0138-75.32125-147.9363-164.42383-150.09131-5.37875-.13367-30.60287-.23384-75.67208-.30067l-.00031-.00046Z"/>
    <path id="path12" class="st11" d="M319.98187,1886.97817l-1.35306-.05016c-7.33196-.24485-13.09924-6.36962-12.92941-13.73117,1.16931-46.67274,1.48669-116.44808.95218-209.32587-.25058-52.21879,37.23466-107.4443,83.43972-132.95228,31.63855-17.4732,64.06236-26.37665,97.27118-26.71066,78.71229-.80184,131.96676-1.01901,159.76327-.65151,101.73131,1.35302,178.75642,75.17091,176.40105,178.90683-.6681,30.40253-.71826,93.91363-.15034,190.53315.04405,7.1632-5.48305,13.12891-12.62873,13.631l-.65151.05016c-6.5445.44321-12.20893-4.48025-12.6519-10.99714-.01652-.24286-.02546-.48618-.02692-.7295-.20042-17.13888-.0835-72.06387.35083-164.77466.06683-15.83587-.31734-30.36904-1.1526-43.59919-5.46248-86.69721-78.47853-137.76333-160.76561-137.41249-64.91421.30082-103.58551.30082-116.01374,0-27.262-.63484-48.29317,1.10251-63.09343,5.21189-37.93629,10.57397-74.41919,27.713-96.87026,59.18455-25.05697,35.23009-27.41233,69.55817-27.16175,112.85654.26729,54.22317.53455,110.01683.80184,167.38053.05968,7.22345-5.74774,13.12769-12.97123,13.18733-.18654.00153-.37309-.00092-.55951-.00734h-.00008Z"/>
    <rect id="rect12" class="st1" x="927.6134" y="1689.62945" width="26.25973" height="193.23934" rx="11.87698" ry="11.87698"/>
    <rect id="rect13" class="st2" x="1289.08528" y="1691.43363" width="26.56033" height="192.03666" rx="12.62866" ry="12.62866"/>
    <rect id="rect14" class="st3" x="1511.29047" y="1690.98262" width="28.16401" height="192.638" rx="13.73117" ry="13.73117"/>
    <rect id="rect15" class="st4" x="1873.86486" y="1692.78665" width="27.16182" height="191.53549" rx="13.02966" ry="13.02966"/>
    <rect id="rect16" class="st5" x="296.48158" y="1777.21924" width="191.53549" height="27.06153" rx="11.97723" ry="11.97723" transform="translate(-1399.18255 2179.87328) rotate(-89.9)"/>
    <rect id="rect17" class="st6" x="644.21591" y="1778.01169" width="189.83161" height="26.2597" rx="11.32575" ry="11.32575" transform="translate(-1053.29713 2527.146) rotate(-89.9)"/>
  </g>
</svg>