<?xml version="1.0" encoding="UTF-8"?>
<svg id="Layer_1" xmlns="http://www.w3.org/2000/svg" xmlns:xlink="http://www.w3.org/1999/xlink" version="1.1" viewBox="0 0 64 64">
  <!-- Generator: Adobe Illustrator 29.7.1, SVG Export Plug-In . SVG Version: 2.1.1 Build 8)  -->
  <defs>
    <style>
      .st0 {
        fill: url(#orange_linear);
      }

      .st1 {
        fill: url(#orange_linear3);
      }

      .st2 {
        fill: url(#orange_linear2);
      }

      .st3 {
        fill: url(#orange_linear1);
      }
    </style>
    <linearGradient id="orange_linear" data-name="orange linear" x1="6.02" y1="16.52" x2="54.97" y2="65.47" gradientUnits="userSpaceOnUse">
      <stop offset=".26" stop-color="#ffdb6e"/>
      <stop offset="1" stop-color="#ffbc5e"/>
    </linearGradient>
    <linearGradient id="orange_linear1" data-name="orange linear" x1="30" y1="24" x2="34" y2="28" xlink:href="#orange_linear"/>
    <linearGradient id="orange_linear2" data-name="orange linear" x1="52.75" y1="17.25" x2="55.25" y2="19.75" xlink:href="#orange_linear"/>
    <linearGradient id="orange_linear3" data-name="orange linear" x1="49.5" y1="15.5" x2="52.5" y2="18.5" xlink:href="#orange_linear"/>
  </defs>
  <path class="st0" d="M61,30h-4v-1h2c.6,0,1-.4,1-1v-3c0-.6-.4-1-1-1h-2v-1c0-.6-.4-1-1-1h-6c-.6,0-1,.4-1,1v7h-3.5l1.5-3.6v-.6l-.2-1.1c-.8-4.6-4.1-8.3-8.4-9.9,1-1.3,1.6-3,1.6-4.8,0-4.4-3.6-8-8-8s-8,3.6-8,8c0,1.8.6,3.5,1.6,4.8-4.3,1.6-7.5,5.3-8.4,9.9l-.2,1.1c0,.2,0,.4.1.6l1.5,3.6h-2.6v-6.2c1.2-.4,2-1.5,2-2.8,0-1.7-1.3-3-3-3H5c-.6,0-1,.4-1,1v3.2c-1.2.4-2,1.5-2,2.8,0,.8.3,1.5.8,2-.5.5-.8,1.2-.8,2,0,.5.1.9.3,1.3-.2.2-.3.4-.3.7v4c0,.6.4,1,1,1h2v25c0,.6.4,1,1,1h4c.6,0,1-.4,1-1v-25h9c-.6.8-1,1.9-1,3v3h-2c-.6,0-1,.4-1,1v19h2v-18h3.3l1.4,13.8c-.4.6-.7,1.4-.7,2.2v1c0,.6.4,1,1,1h6c.6,0,1-.4,1-1v-1c0-.8-.3-1.6-.7-2.2l1.4-13.8h2.6l1.5,13.6c-.5.7-.8,1.5-.8,2.4v1c0,.6.4,1,1,1h6c.6,0,1-.4,1-1v-1c0-.9-.3-1.7-.8-2.4l1.5-13.6h3.3v18h2v-19c0-.6-.4-1-1-1h-2v-3c0-1.1-.4-2.2-1-3h9v25c0,.6.4,1,1,1h4c.6,0,1-.4,1-1v-25h2c.6,0,1-.4,1-1v-4c0-.6-.4-1-1-1ZM58,26v1h-1v-1h1ZM51,24h4v6h-4v-6ZM32,4c3.3,0,6,2.7,6,6s-2.7,6-6,6-6-2.7-6-6,2.7-6,6-6ZM19,25.9l.2-.9c.8-4.2,3.9-7.6,8-8.6,1.3,1,3,1.6,4.8,1.6s3.5-.6,4.8-1.6c4.1,1.1,7.2,4.4,8,8.6l.2.9-1.7,4.1h-2.3v-9c0-.6-.4-1-1-1h-16c-.6,0-1,.4-1,1v9h-2.3l-1.7-4.1ZM39,30h-14v-8h14v8ZM4,29c0-.6.4-1,1-1h9v2H5c-.6,0-1-.4-1-1ZM6,20h9c.6,0,1,.4,1,1s-.4,1-1,1H6v-2ZM5,24h9v2H5c-.6,0-1-.4-1-1s.4-1,1-1ZM9,60h-2v-24h2v24ZM23.2,42.9c0-.8.2-1.5.8-2.1,1.1-1.1,3-1.1,4,0,.5.6.8,1.3.8,2l-1.3,13.4c-.5-.1-1-.2-1.5-.2s-1,.1-1.5.3l-1.3-13.4ZM24,60c0-1.1.9-2,2-2s2,.9,2,2h-4ZM35.2,42.9c0-.8.2-1.5.8-2.1,1.1-1.1,3-1.1,4,0,.5.6.8,1.3.8,2l-1.5,13.4c-.4-.1-.8-.2-1.3-.2s-.9.1-1.3.2l-1.5-13.3ZM36,60c0-1.1.9-2,2-2s2,.9,2,2h-4ZM43,39v3h-.3c-.2-.9-.6-1.8-1.2-2.5-.9-1-2.1-1.5-3.5-1.5s-2.6.5-3.5,1.5c-.7.7-1.1,1.6-1.2,2.5h-2.6c-.2-.9-.6-1.8-1.2-2.5-.9-1-2.1-1.5-3.5-1.5s-2.6.5-3.5,1.5c-.7.7-1.1,1.6-1.2,2.5h-.3v-3c0-1.7,1.3-3,3-3h16c1.7,0,3,1.3,3,3ZM57,60h-2v-24h2v24ZM60,34H4v-2h56v2Z"/>
  <rect class="st3" x="29" y="25" width="6" height="2"/>
  <rect class="st2" x="53" y="17" width="2" height="3"/>
  <rect class="st1" x="50" y="15" width="2" height="4"/>
</svg>