<?xml version="1.0" encoding="UTF-8"?>
<svg id="Glyph" xmlns="http://www.w3.org/2000/svg" xmlns:xlink="http://www.w3.org/1999/xlink" version="1.1" viewBox="0 0 100 100">
  <!-- Generator: Adobe Illustrator 29.7.1, SVG Export Plug-In . SVG Version: 2.1.1 Build 8)  -->
  <defs>
    <style>
      .st0 {
        fill: url(#orange_linear);
      }

      .st1 {
        fill: url(#orange_linear10);
      }

      .st2 {
        fill: url(#orange_linear4);
      }

      .st3 {
        fill: url(#orange_linear5);
      }

      .st4 {
        fill: url(#orange_linear8);
      }

      .st5 {
        fill: url(#orange_linear7);
      }

      .st6 {
        fill: url(#orange_linear9);
      }

      .st7 {
        fill: url(#orange_linear6);
      }

      .st8 {
        fill: url(#orange_linear3);
      }

      .st9 {
        fill: url(#orange_linear2);
      }

      .st10 {
        fill: url(#orange_linear1);
      }
    </style>
    <linearGradient id="orange_linear" data-name="orange linear" x1="14.04989" y1="80.14966" x2="28.95011" y2="95.04989" gradientUnits="userSpaceOnUse">
      <stop offset=".25934" stop-color="#ffdb6e"/>
      <stop offset="1" stop-color="#ffbc5e"/>
    </linearGradient>
    <linearGradient id="orange_linear1" data-name="orange linear" x1="16.19675" y1="64.19675" x2="26.80325" y2="74.80325" xlink:href="#orange_linear"/>
    <linearGradient id="orange_linear2" data-name="orange linear" x1="44.04989" x2="58.95011" y2="95.04989" xlink:href="#orange_linear"/>
    <linearGradient id="orange_linear3" data-name="orange linear" x1="46.19675" y1="64.19675" x2="56.80325" y2="74.80325" xlink:href="#orange_linear"/>
    <linearGradient id="orange_linear4" data-name="orange linear" x1="74.04989" y1="80.14966" x2="88.95011" y2="95.04989" xlink:href="#orange_linear"/>
    <linearGradient id="orange_linear5" data-name="orange linear" x1="76.19675" y1="64.19675" x2="86.80325" y2="74.80325" xlink:href="#orange_linear"/>
    <linearGradient id="orange_linear6" data-name="orange linear" x1="13.19675" y1="19.19675" x2="23.80325" y2="29.80325" xlink:href="#orange_linear"/>
    <linearGradient id="orange_linear7" data-name="orange linear" x1="35.87844" y1="5.87844" x2="88.12156" y2="58.12156" xlink:href="#orange_linear"/>
    <linearGradient id="orange_linear8" data-name="orange linear" x1="55.13863" y1="18.38862" x2="68.86138" y2="32.11137" xlink:href="#orange_linear"/>
    <linearGradient id="orange_linear9" data-name="orange linear" x1="55.13863" y1="30.38862" x2="68.86138" y2="44.11138" xlink:href="#orange_linear"/>
    <linearGradient id="orange_linear10" data-name="orange linear" x1="12.32009" y1="34.19853" x2="30.06078" y2="51.93922" xlink:href="#orange_linear"/>
  </defs>
  <path class="st0" d="M32,87.5v4.5H11v-4.5c0-3.845,2.09-7.173,5.173-9.002,1.568.931,3.375,1.502,5.327,1.502s3.759-.571,5.327-1.502c3.083,1.829,5.173,5.157,5.173,9.002Z"/>
  <path class="st10" d="M29,69.5c0,4.142-3.358,7.5-7.5,7.5s-7.5-3.358-7.5-7.5,3.358-7.5,7.5-7.5,7.5,3.358,7.5,7.5Z"/>
  <path class="st9" d="M62,87.5v4.5h-21v-4.5c0-3.845,2.09-7.173,5.173-9.002,1.568.931,3.375,1.502,5.327,1.502s3.759-.571,5.327-1.502c3.083,1.829,5.173,5.157,5.173,9.002Z"/>
  <path class="st8" d="M59,69.5c0,4.142-3.358,7.5-7.5,7.5s-7.5-3.358-7.5-7.5,3.358-7.5,7.5-7.5,7.5,3.358,7.5,7.5Z"/>
  <path class="st2" d="M92,87.5v4.5h-21v-4.5c0-3.845,2.09-7.173,5.173-9.002,1.568.931,3.375,1.502,5.327,1.502s3.759-.571,5.327-1.502c3.083,1.829,5.173,5.157,5.173,9.002Z"/>
  <path class="st3" d="M89,69.5c0,4.142-3.358,7.5-7.5,7.5s-7.5-3.358-7.5-7.5,3.358-7.5,7.5-7.5,7.5,3.358,7.5,7.5Z"/>
  <path class="st7" d="M11,24.5c0-4.142,3.358-7.5,7.5-7.5s7.5,3.358,7.5,7.5-3.358,7.5-7.5,7.5-7.5-3.358-7.5-7.5Z"/>
  <path class="st5" d="M92,11v42c0,1.657-1.342,3-3,3h-54c-1.658,0-3-1.343-3-3v-7.5h6v4.5h48V14h-48v16.5h-6V11c0-1.657,1.342-3,3-3h54c1.658,0,3,1.343,3,3Z"/>
  <path class="st4" d="M74,23.9v2.7c0,.497-.403.9-.9.9h-22.2c-.497,0-.9-.403-.9-.9v-2.7c0-.497.403-.9.9-.9h22.2c.49699,0,.89999.403.89999.9Z"/>
  <path class="st6" d="M50,38.6v-2.7c0-.497.403-.9.9-.9h22.2c.497,0,.9.403.9.9v2.7c0,.497-.403.9-.9.9h-22.2c-.497,0-.9-.403-.9-.9Z"/>
  <path class="st1" d="M41,38c0,1.657-1.342,3-3,3h-12v15H8v-15c0-3.309,2.692-6,6-6-.365,0,23.604,0,24,0,1.658,0,3,1.343,3,3Z"/>
</svg>